<svg width="1750" height="1750" viewBox="0 0 1750 1750" fill="none" xmlns="http://www.w3.org/2000/svg">
<path d="M875 875L1203.12 546.875" stroke="#67AA0B" stroke-width="40" stroke-miterlimit="10" stroke-linecap="round" stroke-linejoin="round"/>
<path d="M1640.62 328.125H1421.88V109.375L1203.12 328.125V546.875H1421.88L1640.62 328.125Z" stroke="#67AA0B" stroke-width="40" stroke-miterlimit="10" stroke-linecap="round" stroke-linejoin="round"/>
<path d="M875 1203.12C1056.22 1203.12 1203.12 1056.22 1203.12 875C1203.12 693.782 1056.22 546.875 875 546.875C693.782 546.875 546.875 693.782 546.875 875C546.875 1056.22 693.782 1203.12 875 1203.12Z" stroke="#909F44" stroke-width="40" stroke-miterlimit="10" stroke-linecap="round" stroke-linejoin="round"/>
<path d="M1476.56 492.188C1547.66 601.562 1585.94 732.813 1585.94 875C1585.94 1268.75 1268.75 1585.94 875 1585.94C481.25 1585.94 164.062 1268.75 164.062 875C164.062 481.25 481.25 164.062 875 164.062C1017.19 164.062 1148.44 202.344 1257.81 273.438" stroke="#67AA0B" stroke-width="40" stroke-miterlimit="10" stroke-linecap="round" stroke-linejoin="round"/>
</svg>
