<svg width="800" height="800" viewBox="0 0 800 800" fill="none" xmlns="http://www.w3.org/2000/svg">
<path d="M751.455 299.111C749.314 294.373 746.5 289.95 742.869 286.102C739.464 282.453 735.271 279.423 730.561 277.284L180.877 4.09219L180.474 3.93437C174.155 1.22031 167.435 0 160.786 0C150.503 0.015625 140.422 2.87188 130.844 7.62656C116.471 14.8062 102.971 26.2641 90.7643 40.8266C78.5299 55.4172 67.6455 73.2078 59.1143 93.3859C47.9705 119.708 42.4424 146.059 42.4268 169.611C42.4424 185.781 45.0127 200.745 50.8002 213.539C53.7158 219.958 57.4486 225.831 62.2033 230.872C66.9127 235.898 72.6564 240.034 79.1768 242.792L79.5924 242.964L394.903 354.744V445.128L203.594 735.608C199.186 742.3 201.052 751.319 207.744 755.727C214.436 760.15 223.455 758.267 227.863 751.591L394.903 497.959V785.453C394.903 793.495 401.406 800 409.449 800C417.461 800 423.967 793.497 423.967 785.453V496.194L592.171 751.592C596.608 758.27 605.599 760.152 612.317 755.728C619.024 751.32 620.863 742.302 616.439 735.609L423.967 443.377V365.055L658.156 448.086V448.056C662.794 449.894 667.706 450.8 672.517 450.8C680.4 450.756 687.911 448.573 694.933 445.127C705.458 439.856 715.038 431.656 723.667 421.361C732.269 411.064 739.88 398.6 745.883 384.514C753.666 366.089 757.558 347.622 757.574 330.905C757.558 319.403 755.749 308.633 751.455 299.111ZM102.024 218.291C99.0939 218.291 96.308 217.919 93.6377 217.114L90.3471 215.964C87.7627 214.816 85.508 213.236 83.3408 210.938C80.0236 207.434 76.9783 202.12 74.8393 195.084C72.7283 188.048 71.4783 179.375 71.4783 169.609C71.4783 150.653 76.1033 127.734 85.8814 104.716C95.8189 81.2078 109.433 61.6203 123.391 48.4094C130.313 41.8187 137.321 36.8344 143.781 33.6469C150.244 30.4313 156.06 29.0375 160.785 29.0375C163.814 29.0531 166.428 29.5984 168.941 30.6031L172.142 32.2109C174.571 33.6047 176.781 35.3422 178.835 37.4672C183.144 41.9609 186.705 48.1953 189.146 55.9906C191.602 63.7469 192.908 72.9656 192.894 83.1609C192.906 101.584 188.6 122.997 179.51 144.394C169.917 167.025 156.633 185.837 142.575 198.719C135.567 205.167 128.374 210.106 121.452 213.409C114.531 216.697 107.955 218.291 102.024 218.291ZM247.12 271.527L127.183 229.005C127.628 228.803 128.117 228.602 128.589 228.4C141.614 222.183 154.18 212.002 165.511 198.791C176.885 185.608 186.952 169.352 194.777 150.913C204.67 127.563 209.495 104.097 209.495 83.1609C209.495 70.3359 207.671 58.4312 203.91 48.0078L317.844 104.616C318.864 106.855 319.825 109.181 320.646 111.725C323.114 119.464 324.406 128.741 324.406 138.908C324.422 157.319 320.113 178.744 311.024 200.169C301.43 222.772 288.133 241.584 274.088 254.466C267.081 260.914 259.886 265.853 252.964 269.156C250.983 270.089 249.044 270.864 247.12 271.527ZM619.124 403.411L268.919 279.266C278.799 273.091 288.291 264.733 297.022 254.553C308.397 241.355 318.463 225.098 326.288 206.645C336.167 183.281 341.006 159.875 341.006 138.908C341.006 130.464 340.202 122.438 338.608 114.927L671.252 280.258C673.391 282.973 675.186 286.42 676.522 290.698C678.188 295.983 679.106 302.345 679.106 309.409C679.136 322.205 676.12 337.197 669.744 352.231C663.024 368.1 653.675 381.269 643.953 390.214C639.072 394.695 634.116 398.084 629.435 400.295C625.76 402.047 622.285 403.038 619.124 403.411ZM719.116 373.181C712.61 388.591 703.65 401.428 694.703 409.816C690.266 414.066 685.872 417.153 681.994 419.106C678.088 421.031 674.858 421.719 672.516 421.719C670.978 421.719 669.802 421.459 668.681 420.986L668.28 420.8L642.889 411.811C650.271 407.245 657.278 401.055 663.741 393.573C671.997 383.952 679.335 372.134 685.008 358.72C692.189 341.761 695.72 324.745 695.72 309.408C695.72 303.077 695.046 297.102 693.825 291.458L718.022 303.477L718.424 303.664C719.586 304.138 720.608 304.856 721.741 306.062C723.392 307.756 725.131 310.7 726.424 314.938C727.744 319.189 728.52 324.645 728.52 330.906C728.522 343.055 725.535 358.045 719.116 373.181Z" fill="#67AA0B"/>
<path d="M152.83 75.4062C155.528 73.9859 157.869 73.3969 159.852 73.3969C160.569 73.3969 161.274 73.4688 161.949 73.6281C166.4 74.6469 170.866 71.8469 171.885 67.3953C172.905 62.9141 170.075 58.4641 165.61 57.4578C163.672 56.9984 161.732 56.8125 159.852 56.8125C154.639 56.8125 149.613 58.2922 145.032 60.7328C138.153 64.4391 132.021 70.1828 126.435 77.4203C120.907 84.5984 115.966 93.3312 111.832 103.211C110.05 107.433 112.046 112.272 116.283 114.08C120.505 115.845 125.374 113.85 127.125 109.614C132.022 97.9672 138.097 88.475 144.157 82.2438C147.142 79.1109 150.144 76.8281 152.83 75.4062Z" fill="#909F44"/>
</svg>
